<svg class="icon" width="64" height="64" viewBox="0 0 3000 3000">
      <path
         id="path1"
         d="m 1231.7148,540.88281 c -175.3712,1.27552 -350.751,1.7652 -526.11519,3.80078 C 497.91026,531.01165 292.41968,651.7946 197.3457,835.77539 68.118438,1067.6392 143.82682,1382.9545 358.625,1536.666 c 68.74071,55.1477 164.92542,77.2637 239.31055,105.6504 -248.44997,33.7063 -452.29913,258.0274 -463.58985,508.5547 l -2.80078,39.498 292.85352,-1.7734 c 147.36039,-8.7633 301.50493,19.0012 442.96679,-33.3965 207.50477,-70.6255 366.13287,-279.7769 359.91407,-501.3203 20.7086,-254.2362 -174.3847,-497.1277 -420.47461,-550.9219 -95.69249,-6.5266 12.95162,-22.186 44.07226,-34.2832 225.54665,-67.6017 385.49005,-293.48294 380.83785,-527.79099 z m 344.4161,6.41992 c -28.6396,-1.33007 -55.029,3.12469 -76.9317,15.58204 -5.4748,276.73709 -0.6561,553.60673 -0.9472,830.39643 8.023,169.2403 -24.7047,352.5392 66.5449,505.6426 82.517,159.0214 254.5663,271.2623 434.9511,287.584 199.9082,3.2962 399.8711,2.3404 599.8047,3.2402 -5.6019,-102.8993 -26.2055,-209.2642 -87.1328,-294.5 -90.2883,-160.1268 -276.7392,-256.5914 -459.9199,-262.4277 -1.0472,-166.144 -1.6849,-332.2908 -3.1719,-498.4316 14.3672,-182.57794 -66.8509,-369.89325 -215.0683,-478.80472 -66.0387,-48.23722 -172.2102,-104.29101 -258.1289,-108.28125 z" />
</svg> 
