<?xml version="1.0" encoding="UTF-8" standalone="no"?>
<!DOCTYPE svg PUBLIC "-//W3C//DTD SVG 1.1//EN" "http://www.w3.org/Graphics/SVG/1.1/DTD/svg11.dtd">
<svg width="100%" height="100%" viewBox="0 0 2000 2000" version="1.1" xmlns="http://www.w3.org/2000/svg" xmlns:xlink="http://www.w3.org/1999/xlink" xml:space="preserve" xmlns:serif="http://www.serif.com/" style="fill-rule:evenodd;clip-rule:evenodd;stroke-linejoin:round;stroke-miterlimit:2;">
    <g transform="matrix(1.636364,0,0,1.636364,-636.363636,-1031.818182)">
        <path d="M1061.111,1088.889L1061.111,1394.444C1061.111,1426.86 1073.988,1457.947 1096.909,1480.869C1119.83,1503.79 1150.918,1516.667 1183.333,1516.667L1366.667,1516.667C1400.417,1516.667 1427.778,1544.027 1427.778,1577.778L1427.778,1577.778C1427.778,1611.529 1400.417,1638.889 1366.667,1638.889C1170.929,1638.889 572.222,1638.889 572.222,1638.889C539.806,1638.889 508.719,1651.766 485.798,1674.687C462.877,1697.608 450,1728.695 450,1761.111L450,1761.111L1427.778,1761.111C1460.194,1761.111 1491.281,1748.234 1514.202,1725.313C1537.123,1702.392 1550,1671.305 1550,1638.89L1550,1455.556C1550,1423.14 1537.123,1392.053 1514.202,1369.131C1491.281,1346.21 1460.193,1333.333 1427.778,1333.333L1244.444,1333.333C1210.694,1333.333 1183.333,1305.973 1183.333,1272.222L1183.333,844.444C1183.333,812.029 1170.456,780.941 1147.535,758.02C1124.614,735.099 1093.526,722.222 1061.111,722.222L572.222,722.222C539.807,722.222 508.719,735.099 485.798,758.02C462.877,780.941 450,812.029 450,844.444L450,1088.889C450,1121.304 462.877,1152.392 485.798,1175.313C508.719,1198.234 539.807,1211.111 572.222,1211.111L755.556,1211.111C789.306,1211.111 816.667,1238.471 816.667,1272.222L816.667,1272.222C816.667,1305.973 789.306,1333.333 755.556,1333.333C705.731,1333.333 633.786,1333.333 572.222,1333.333C539.807,1333.333 508.719,1346.21 485.798,1369.131C462.877,1392.053 450,1423.14 450,1455.556L450,1501.389C450,1505.441 451.61,1509.327 454.475,1512.192C457.34,1515.057 461.226,1516.667 465.278,1516.667L816.667,1516.667C849.082,1516.667 880.17,1503.79 903.091,1480.869C926.012,1457.947 938.889,1426.86 938.889,1394.444L938.889,1150C938.889,1117.585 926.012,1086.497 903.091,1063.576C880.17,1040.655 849.082,1027.778 816.667,1027.778L633.333,1027.778C599.583,1027.778 572.222,1000.417 572.222,966.667L572.222,966.667C572.222,932.916 599.583,905.556 633.333,905.556C694.462,905.556 791.541,905.556 877.778,905.556C926.401,905.556 973.032,924.871 1007.414,959.253C1041.796,993.634 1061.111,1040.266 1061.111,1088.889Z" style="fill:rgb(83,197,39);"/>
    </g>
</svg>
