<?xml version="1.0" encoding="UTF-8" standalone="no"?>
<!DOCTYPE svg PUBLIC "-//W3C//DTD SVG 1.1//EN" "http://www.w3.org/Graphics/SVG/1.1/DTD/svg11.dtd">
<svg width="100%" height="100%" viewBox="0 0 904 64" version="1.1" xmlns="http://www.w3.org/2000/svg" xmlns:xlink="http://www.w3.org/1999/xlink" xml:space="preserve" xmlns:serif="http://www.serif.com/" style="fill-rule:evenodd;clip-rule:evenodd;stroke-linejoin:round;stroke-miterlimit:2;">
    <g transform="matrix(1,0,0,1,-2936.000193,0)">
        <g transform="matrix(1.059218,0,0,-0.446359,1921.86792,253.453173)">
            <g transform="matrix(1,0,0,0.333333,-0.000472,330.754912)">
                <rect x="1569.207" y="281.059" width="241.688" height="430.147" style="fill:white;"/>
            </g>
        </g>
        <g transform="matrix(0.529609,0,0,-0.446359,2560.93396,253.453173)">
            <g transform="matrix(1,0,0,0.333333,-0.000944,330.754912)">
                <rect x="1569.207" y="281.059" width="241.688" height="430.147" style="fill:white;"/>
            </g>
        </g>
        <g transform="matrix(0.264804,0,0,-0.446359,2848.46698,253.453173)">
            <g transform="matrix(1,0,0,0.333333,-0.001889,330.754912)">
                <rect x="1569.207" y="281.059" width="241.688" height="430.147" style="fill:white;"/>
            </g>
        </g>
        <g transform="matrix(0.132402,0,0,-0.446359,2864.23349,253.453173)">
            <g transform="matrix(1,0,0,0.333333,-0.003777,330.754912)">
                <rect x="1569.207" y="281.059" width="241.688" height="430.147" style="fill:white;"/>
            </g>
        </g>
        <g transform="matrix(0.066201,0,0,-0.446359,2888.116745,253.453173)">
            <g transform="matrix(1,0,0,0.333333,-0.007554,330.754912)">
                <rect x="1569.207" y="281.059" width="241.688" height="430.147" style="fill:white;"/>
            </g>
        </g>
        <g transform="matrix(0.033101,0,0,-0.446359,2884.058372,253.453173)">
            <g transform="matrix(1,0,0,0.333333,-0.015109,330.754912)">
                <rect x="1569.207" y="281.059" width="241.688" height="430.147" style="fill:white;"/>
            </g>
        </g>
        <g transform="matrix(0.132402,0,0,-0.446359,2960.23349,253.453173)">
            <g transform="matrix(1,0,0,0.333333,-0.003777,330.754912)">
                <rect x="1569.207" y="281.059" width="241.688" height="430.147" style="fill:white;"/>
            </g>
        </g>
    </g>
</svg>
